<svg xmlns="http://www.w3.org/2000/svg" version="1.1" xmlns:xlink="http://www.w3.org/1999/xlink" xmlns:svgjs="http://svgjs.com/svgjs" width="1440" height="340" preserveAspectRatio="none" viewBox="0 0 1440 340"><g mask="url(&quot;#SvgjsMask11108&quot;)" fill="none"><g transform="translate(0, 0)" stroke-linecap="round" stroke="url(#SvgjsLinearGradient11109)"><path d="M2.5 81.295 L2.5 258.705" stroke-width="3.75"></path><path d="M7.5 69.815 L7.5 129.815" stroke-width="3.75"></path><path d="M7.5 135.44 L7.5 161.69" stroke-width="3.75"></path><path d="M7.5 167.315 L7.5 270.185" stroke-width="3.75"></path><path d="M12.5 73.985 L12.5 242.735" stroke-width="3.75"></path><path d="M12.5 248.36 L12.5 266.005" stroke-width="3.75"></path><path d="M17.5 122.465 L17.5 156.215" stroke-width="3.75"></path><path d="M17.5 161.84 L17.5 169.34" stroke-width="3.75"></path><path d="M17.5 174.965 L17.5 217.535" stroke-width="3.75"></path><path d="M22.5 75.155 L22.5 172.655" stroke-width="3.75"></path><path d="M22.5 178.28 L22.5 264.855" stroke-width="3.75"></path><path d="M27.5 86.545 L27.5 135.29500000000002" stroke-width="3.75"></path><path d="M27.5 140.92000000000002 L27.5 182.17000000000002" stroke-width="3.75"></path><path d="M27.5 187.79500000000002 L27.5 253.445" stroke-width="3.75"></path><path d="M32.5 20.635 L32.5 294.385" stroke-width="3.75"></path><path d="M32.5 300.01 L32.5 319.365" stroke-width="3.75"></path><path d="M37.5 108.785 L37.5 191.285" stroke-width="3.75"></path><path d="M37.5 196.91 L37.5 219.41" stroke-width="3.75"></path><path d="M37.5 225.035 L37.5 231.215" stroke-width="3.75"></path><path d="M42.5 64.805 L42.5 275.195" stroke-width="3.75"></path><path d="M47.5 106.285 L47.5 233.715" stroke-width="3.75"></path><path d="M52.5 89.205 L52.5 167.95499999999998" stroke-width="3.75"></path><path d="M52.5 173.57999999999998 L52.5 203.57999999999998" stroke-width="3.75"></path><path d="M52.5 209.20499999999998 L52.5 250.795" stroke-width="3.75"></path><path d="M57.5 115.445 L57.5 224.555" stroke-width="3.75"></path><path d="M62.5 55.395 L62.5 246.645" stroke-width="3.75"></path><path d="M62.5 252.27 L62.5 259.77" stroke-width="3.75"></path><path d="M62.5 265.395 L62.5 284.605" stroke-width="3.75"></path><path d="M67.5 149.575 L67.5 160.825" stroke-width="3.75"></path><path d="M67.5 166.45 L67.5 177.7" stroke-width="3.75"></path><path d="M67.5 183.325 L67.5 190.425" stroke-width="3.75"></path><path d="M72.5 152.305 L72.5 163.555" stroke-width="3.75"></path><path d="M72.5 169.18 L72.5 172.93" stroke-width="3.75"></path><path d="M72.5 178.555 L72.5 187.695" stroke-width="3.75"></path><path d="M77.5 62.625 L77.5 277.375" stroke-width="3.75"></path><path d="M82.5 90.535 L82.5 176.785" stroke-width="3.75"></path><path d="M82.5 182.41 L82.5 231.16" stroke-width="3.75"></path><path d="M82.5 236.785 L82.5 249.465" stroke-width="3.75"></path><path d="M87.5 151.865 L87.5 188.135" stroke-width="3.75"></path><path d="M92.5 70.035 L92.5 130.035" stroke-width="3.75"></path><path d="M92.5 135.66 L92.5 184.41" stroke-width="3.75"></path><path d="M92.5 190.035 L92.5 269.965" stroke-width="3.75"></path><path d="M97.5 130.065 L97.5 160.065" stroke-width="3.75"></path><path d="M97.5 165.69 L97.5 199.44" stroke-width="3.75"></path><path d="M97.5 205.065 L97.5 209.935" stroke-width="3.75"></path><path d="M102.5 61.685 L102.5 140.435" stroke-width="3.75"></path><path d="M102.5 146.06 L102.5 149.81" stroke-width="3.75"></path><path d="M102.5 155.435 L102.5 278.315" stroke-width="3.75"></path><path d="M107.5 23.315 L107.5 154.565" stroke-width="3.75"></path><path d="M107.5 160.19 L107.5 272.69" stroke-width="3.75"></path><path d="M107.5 278.315 L107.5 316.685" stroke-width="3.75"></path><path d="M112.5 12.365 L112.5 72.365" stroke-width="3.75"></path><path d="M112.5 77.99 L112.5 327.635" stroke-width="3.75"></path><path d="M117.5 79.935 L117.5 87.435" stroke-width="3.75"></path><path d="M117.5 93.06 L117.5 260.065" stroke-width="3.75"></path><path d="M122.5 10.465 L122.5 257.965" stroke-width="3.75"></path><path d="M122.5 263.59 L122.5 329.535" stroke-width="3.75"></path><path d="M127.5 130.815 L127.5 209.185" stroke-width="3.75"></path><path d="M132.5 140.755 L132.5 148.255" stroke-width="3.75"></path><path d="M132.5 153.88 L132.5 183.88" stroke-width="3.75"></path><path d="M132.5 189.505 L132.5 199.245" stroke-width="3.75"></path><path d="M137.5 138.185 L137.5 201.815" stroke-width="3.75"></path><path d="M142.5 102.815 L142.5 237.185" stroke-width="3.75"></path><path d="M147.5 15.345 L147.5 127.845" stroke-width="3.75"></path><path d="M147.5 133.47 L147.5 324.655" stroke-width="3.75"></path><path d="M152.5 88.105 L152.5 163.10500000000002" stroke-width="3.75"></path><path d="M152.5 168.73000000000002 L152.5 194.98000000000002" stroke-width="3.75"></path><path d="M152.5 200.60500000000002 L152.5 251.895" stroke-width="3.75"></path><path d="M157.5 35.435 L157.5 177.935" stroke-width="3.75"></path><path d="M157.5 183.56 L157.5 304.565" stroke-width="3.75"></path><path d="M162.5 98.795 L162.5 241.195" stroke-width="3.75"></path><path d="M167.5 98.125 L167.5 150.625" stroke-width="3.75"></path><path d="M167.5 156.25 L167.5 178.75" stroke-width="3.75"></path><path d="M167.5 184.375 L167.5 241.875" stroke-width="3.75"></path><path d="M172.5 12.305 L172.5 327.695" stroke-width="3.75"></path><path d="M177.5 118.345 L177.5 152.095" stroke-width="3.75"></path><path d="M177.5 157.72 L177.5 168.97" stroke-width="3.75"></path><path d="M177.5 174.595 L177.5 221.655" stroke-width="3.75"></path><path d="M182.5 5.505 L182.5 334.505" stroke-width="3.75"></path><path d="M187.5 103.625 L187.5 236.375" stroke-width="3.75"></path><path d="M192.5 63.575 L192.5 221.075" stroke-width="3.75"></path><path d="M192.5 226.7 L192.5 276.425" stroke-width="3.75"></path><path d="M197.5 131.625 L197.5 191.625" stroke-width="3.75"></path><path d="M197.5 197.25 L197.5 208.375" stroke-width="3.75"></path><path d="M202.5 49.715 L202.5 259.71500000000003" stroke-width="3.75"></path><path d="M202.5 265.34000000000003 L202.5 272.84000000000003" stroke-width="3.75"></path><path d="M202.5 278.46500000000003 L202.5 290.285" stroke-width="3.75"></path><path d="M207.5 113.065 L207.5 173.065" stroke-width="3.75"></path><path d="M207.5 178.69 L207.5 226.935" stroke-width="3.75"></path><path d="M212.5 131.315 L212.5 176.315" stroke-width="3.75"></path><path d="M212.5 181.94 L212.5 208.685" stroke-width="3.75"></path><path d="M217.5 73.645 L217.5 204.89499999999998" stroke-width="3.75"></path><path d="M217.5 210.51999999999998 L217.5 266.365" stroke-width="3.75"></path><path d="M222.5 143.965 L222.5 155.215" stroke-width="3.75"></path><path d="M222.5 160.84 L222.5 196.035" stroke-width="3.75"></path><path d="M227.5 62.005 L227.5 253.255" stroke-width="3.75"></path><path d="M227.5 258.88 L227.5 262.63" stroke-width="3.75"></path><path d="M227.5 268.255 L227.5 278.005" stroke-width="3.75"></path><path d="M232.5 87.245 L232.5 252.755" stroke-width="3.75"></path><path d="M237.5 12.885 L237.5 234.135" stroke-width="3.75"></path><path d="M237.5 239.76 L237.5 327.115" stroke-width="3.75"></path><path d="M242.5 32.635000000000005 L242.5 148.885" stroke-width="3.75"></path><path d="M242.5 154.51 L242.5 237.01" stroke-width="3.75"></path><path d="M242.5 242.635 L242.5 307.365" stroke-width="3.75"></path><path d="M247.5 124.905 L247.5 215.095" stroke-width="3.75"></path><path d="M252.5 110.115 L252.5 128.865" stroke-width="3.75"></path><path d="M252.5 134.49 L252.5 229.885" stroke-width="3.75"></path><path d="M257.5 125.405 L257.5 177.905" stroke-width="3.75"></path><path d="M257.5 183.53 L257.5 214.595" stroke-width="3.75"></path><path d="M262.5 105.735 L262.5 184.485" stroke-width="3.75"></path><path d="M262.5 190.11 L262.5 234.265" stroke-width="3.75"></path><path d="M267.5 95.005 L267.5 140.005" stroke-width="3.75"></path><path d="M267.5 145.63 L267.5 245.005" stroke-width="3.75"></path><path d="M272.5 89.065 L272.5 250.935" stroke-width="3.75"></path><path d="M277.5 6.315 L277.5 25.065" stroke-width="3.75"></path><path d="M277.5 30.69 L277.5 333.685" stroke-width="3.75"></path><path d="M282.5 108.975 L282.5 231.025" stroke-width="3.75"></path><path d="M287.5 47.745 L287.5 70.245" stroke-width="3.75"></path><path d="M287.5 75.87 L287.5 132.12" stroke-width="3.75"></path><path d="M287.5 137.745 L287.5 292.255" stroke-width="3.75"></path><path d="M292.5 112.425 L292.5 202.425" stroke-width="3.75"></path><path d="M292.5 208.05 L292.5 211.8" stroke-width="3.75"></path><path d="M292.5 217.425 L292.5 227.575" stroke-width="3.75"></path><path d="M297.5 31.915 L297.5 174.415" stroke-width="3.75"></path><path d="M297.5 180.04 L297.5 187.54" stroke-width="3.75"></path><path d="M297.5 193.165 L297.5 308.085" stroke-width="3.75"></path><path d="M302.5 62.545 L302.5 238.79500000000002" stroke-width="3.75"></path><path d="M302.5 244.42000000000002 L302.5 251.92000000000002" stroke-width="3.75"></path><path d="M302.5 257.545 L302.5 277.445" stroke-width="3.75"></path><path d="M307.5 28.375 L307.5 69.625" stroke-width="3.75"></path><path d="M307.5 75.25 L307.5 210.25" stroke-width="3.75"></path><path d="M307.5 215.875 L307.5 311.625" stroke-width="3.75"></path><path d="M312.5 105.535 L312.5 143.035" stroke-width="3.75"></path><path d="M312.5 148.66 L312.5 212.41" stroke-width="3.75"></path><path d="M312.5 218.035 L312.5 234.465" stroke-width="3.75"></path><path d="M317.5 122.695 L317.5 178.945" stroke-width="3.75"></path><path d="M317.5 184.57 L317.5 203.32" stroke-width="3.75"></path><path d="M317.5 208.945 L317.5 217.305" stroke-width="3.75"></path><path d="M322.5 53.765 L322.5 147.515" stroke-width="3.75"></path><path d="M322.5 153.14 L322.5 156.89" stroke-width="3.75"></path><path d="M322.5 162.515 L322.5 286.235" stroke-width="3.75"></path><path d="M327.5 119.635 L327.5 134.635" stroke-width="3.75"></path><path d="M327.5 140.26 L327.5 159.01" stroke-width="3.75"></path><path d="M327.5 164.635 L327.5 220.365" stroke-width="3.75"></path><path d="M332.5 151.845 L332.5 166.845" stroke-width="3.75"></path><path d="M332.5 172.47 L332.5 188.155" stroke-width="3.75"></path><path d="M337.5 76.125 L337.5 173.625" stroke-width="3.75"></path><path d="M337.5 179.25 L337.5 194.25" stroke-width="3.75"></path><path d="M337.5 199.875 L337.5 263.875" stroke-width="3.75"></path><path d="M342.5 85.955 L342.5 194.70499999999998" stroke-width="3.75"></path><path d="M342.5 200.32999999999998 L342.5 254.045" stroke-width="3.75"></path><path d="M347.5 34.495 L347.5 278.245" stroke-width="3.75"></path><path d="M347.5 283.87 L347.5 291.37" stroke-width="3.75"></path><path d="M347.5 296.995 L347.5 305.505" stroke-width="3.75"></path><path d="M352.5 127.925 L352.5 165.425" stroke-width="3.75"></path><path d="M352.5 171.05 L352.5 212.075" stroke-width="3.75"></path><path d="M357.5 22.855 L357.5 154.105" stroke-width="3.75"></path><path d="M357.5 159.73 L357.5 212.23" stroke-width="3.75"></path><path d="M357.5 217.855 L357.5 317.145" stroke-width="3.75"></path><path d="M362.5 95.545 L362.5 244.445" stroke-width="3.75"></path><path d="M367.5 98.625 L367.5 241.375" stroke-width="3.75"></path><path d="M372.5 50.255 L372.5 177.755" stroke-width="3.75"></path><path d="M372.5 183.38 L372.5 217.13" stroke-width="3.75"></path><path d="M372.5 222.755 L372.5 289.755" stroke-width="3.75"></path><path d="M377.5 98.825 L377.5 128.825" stroke-width="3.75"></path><path d="M377.5 134.45 L377.5 149.45" stroke-width="3.75"></path><path d="M377.5 155.075 L377.5 241.175" stroke-width="3.75"></path><path d="M382.5 119.015 L382.5 152.765" stroke-width="3.75"></path><path d="M382.5 158.39 L382.5 184.64" stroke-width="3.75"></path><path d="M382.5 190.265 L382.5 220.985" stroke-width="3.75"></path><path d="M387.5 78.125 L387.5 104.375" stroke-width="3.75"></path><path d="M387.5 110 L387.5 155" stroke-width="3.75"></path><path d="M387.5 160.625 L387.5 261.875" stroke-width="3.75"></path><path d="M392.5 49.335 L392.5 154.335" stroke-width="3.75"></path><path d="M392.5 159.96 L392.5 290.665" stroke-width="3.75"></path><path d="M397.5 25.955 L397.5 142.20499999999998" stroke-width="3.75"></path><path d="M397.5 147.82999999999998 L397.5 170.32999999999998" stroke-width="3.75"></path><path d="M397.5 175.95499999999998 L397.5 314.045" stroke-width="3.75"></path><path d="M402.5 66.865 L402.5 194.365" stroke-width="3.75"></path><path d="M402.5 199.99 L402.5 244.99" stroke-width="3.75"></path><path d="M402.5 250.615 L402.5 273.135" stroke-width="3.75"></path><path d="M407.5 152.875 L407.5 187.125" stroke-width="3.75"></path><path d="M412.5 27.095 L412.5 87.095" stroke-width="3.75"></path><path d="M412.5 92.72 L412.5 171.47" stroke-width="3.75"></path><path d="M412.5 177.095 L412.5 312.905" stroke-width="3.75"></path><path d="M417.5 38.345 L417.5 79.595" stroke-width="3.75"></path><path d="M417.5 85.22 L417.5 133.97" stroke-width="3.75"></path><path d="M417.5 139.595 L417.5 301.655" stroke-width="3.75"></path><path d="M422.5 27.285 L422.5 61.035" stroke-width="3.75"></path><path d="M422.5 66.66 L422.5 242.91" stroke-width="3.75"></path><path d="M422.5 248.535 L422.5 312.715" stroke-width="3.75"></path><path d="M427.5 113.435 L427.5 124.685" stroke-width="3.75"></path><path d="M427.5 130.31 L427.5 226.565" stroke-width="3.75"></path><path d="M432.5 47.795 L432.5 205.29500000000002" stroke-width="3.75"></path><path d="M432.5 210.92000000000002 L432.5 252.17000000000002" stroke-width="3.75"></path><path d="M432.5 257.795 L432.5 292.205" stroke-width="3.75"></path><path d="M437.5 86.845 L437.5 253.155" stroke-width="3.75"></path><path d="M442.5 88.315 L442.5 230.815" stroke-width="3.75"></path><path d="M442.5 236.44 L442.5 251.685" stroke-width="3.75"></path><path d="M447.5 135.345 L447.5 142.845" stroke-width="3.75"></path><path d="M447.5 148.47 L447.5 204.655" stroke-width="3.75"></path><path d="M452.5 7.465 L452.5 89.965" stroke-width="3.75"></path><path d="M452.5 95.59 L452.5 129.34" stroke-width="3.75"></path><path d="M452.5 134.965 L452.5 332.535" stroke-width="3.75"></path><path d="M457.5 146.055 L457.5 164.805" stroke-width="3.75"></path><path d="M457.5 170.43 L457.5 193.945" stroke-width="3.75"></path><path d="M462.5 114.755 L462.5 182.255" stroke-width="3.75"></path><path d="M462.5 187.88 L462.5 191.63" stroke-width="3.75"></path><path d="M462.5 197.255 L462.5 225.245" stroke-width="3.75"></path><path d="M467.5 141.595 L467.5 152.845" stroke-width="3.75"></path><path d="M467.5 158.47 L467.5 184.72" stroke-width="3.75"></path><path d="M467.5 190.345 L467.5 198.405" stroke-width="3.75"></path><path d="M472.5 95.125 L472.5 136.375" stroke-width="3.75"></path><path d="M472.5 142 L472.5 244.875" stroke-width="3.75"></path><path d="M477.5 77.705 L477.5 205.20499999999998" stroke-width="3.75"></path><path d="M477.5 210.82999999999998 L477.5 262.295" stroke-width="3.75"></path><path d="M482.5 67.515 L482.5 101.265" stroke-width="3.75"></path><path d="M482.5 106.89 L482.5 170.64" stroke-width="3.75"></path><path d="M482.5 176.265 L482.5 272.485" stroke-width="3.75"></path><path d="M487.5 81.605 L487.5 186.60500000000002" stroke-width="3.75"></path><path d="M487.5 192.23000000000002 L487.5 207.23000000000002" stroke-width="3.75"></path><path d="M487.5 212.85500000000002 L487.5 258.395" stroke-width="3.75"></path><path d="M492.5 96.065 L492.5 216.065" stroke-width="3.75"></path><path d="M492.5 221.69 L492.5 229.19" stroke-width="3.75"></path><path d="M492.5 234.815 L492.5 243.935" stroke-width="3.75"></path><path d="M497.5 28.795 L497.5 70.045" stroke-width="3.75"></path><path d="M497.5 75.67 L497.5 259.42" stroke-width="3.75"></path><path d="M497.5 265.045 L497.5 311.205" stroke-width="3.75"></path><path d="M502.5 55.125 L502.5 284.875" stroke-width="3.75"></path><path d="M507.5 8.495000000000001 L507.5 259.745" stroke-width="3.75"></path><path d="M507.5 265.37 L507.5 299.12" stroke-width="3.75"></path><path d="M507.5 304.745 L507.5 331.505" stroke-width="3.75"></path><path d="M512.5 36.565 L512.5 89.065" stroke-width="3.75"></path><path d="M512.5 94.69 L512.5 233.44" stroke-width="3.75"></path><path d="M512.5 239.065 L512.5 303.435" stroke-width="3.75"></path><path d="M517.5 113.685 L517.5 136.185" stroke-width="3.75"></path><path d="M517.5 141.81 L517.5 226.315" stroke-width="3.75"></path><path d="M522.5 20.835 L522.5 319.165" stroke-width="3.75"></path><path d="M527.5 64.985 L527.5 203.735" stroke-width="3.75"></path><path d="M527.5 209.36 L527.5 228.11" stroke-width="3.75"></path><path d="M527.5 233.735 L527.5 275.015" stroke-width="3.75"></path><path d="M532.5 50.295 L532.5 110.295" stroke-width="3.75"></path><path d="M532.5 115.92 L532.5 202.17000000000002" stroke-width="3.75"></path><path d="M532.5 207.79500000000002 L532.5 289.705" stroke-width="3.75"></path><path d="M537.5 90.685 L537.5 169.435" stroke-width="3.75"></path><path d="M537.5 175.06 L537.5 238.81" stroke-width="3.75"></path><path d="M537.5 244.435 L537.5 249.315" stroke-width="3.75"></path><path d="M542.5 73.145 L542.5 196.89499999999998" stroke-width="3.75"></path><path d="M542.5 202.51999999999998 L542.5 228.76999999999998" stroke-width="3.75"></path><path d="M542.5 234.39499999999998 L542.5 266.855" stroke-width="3.75"></path><path d="M547.5 3.635 L547.5 191.135" stroke-width="3.75"></path><path d="M547.5 196.76 L547.5 324.26" stroke-width="3.75"></path><path d="M547.5 329.885 L547.5 336.365" stroke-width="3.75"></path><path d="M552.5 88.605 L552.5 103.605" stroke-width="3.75"></path><path d="M552.5 109.23 L552.5 142.98000000000002" stroke-width="3.75"></path><path d="M552.5 148.60500000000002 L552.5 251.395" stroke-width="3.75"></path><path d="M557.5 4.665 L557.5 335.335" stroke-width="3.75"></path><path d="M562.5 44.645 L562.5 295.365" stroke-width="3.75"></path><path d="M567.5 5.975 L567.5 334.015" stroke-width="3.75"></path><path d="M572.5 86.455 L572.5 105.205" stroke-width="3.75"></path><path d="M572.5 110.83 L572.5 129.57999999999998" stroke-width="3.75"></path><path d="M572.5 135.20499999999998 L572.5 253.545" stroke-width="3.75"></path><path d="M577.5 38.785 L577.5 248.785" stroke-width="3.75"></path><path d="M577.5 254.41 L577.5 301.225" stroke-width="3.75"></path><path d="M582.5 30.985 L582.5 210.985" stroke-width="3.75"></path><path d="M582.5 216.61 L582.5 261.61" stroke-width="3.75"></path><path d="M582.5 267.235 L582.5 309.015" stroke-width="3.75"></path><path d="M587.5 109.685 L587.5 120.935" stroke-width="3.75"></path><path d="M587.5 126.56 L587.5 230.315" stroke-width="3.75"></path><path d="M592.5 13.595 L592.5 43.595" stroke-width="3.75"></path><path d="M592.5 49.22 L592.5 307.97" stroke-width="3.75"></path><path d="M592.5 313.595 L592.5 326.405" stroke-width="3.75"></path><path d="M597.5 85.655 L597.5 183.155" stroke-width="3.75"></path><path d="M597.5 188.78 L597.5 237.53" stroke-width="3.75"></path><path d="M597.5 243.155 L597.5 254.34500000000003" stroke-width="3.75"></path><path d="M602.5 123.625 L602.5 157.375" stroke-width="3.75"></path><path d="M602.5 163 L602.5 216.375" stroke-width="3.75"></path><path d="M607.5 20.685 L607.5 319.315" stroke-width="3.75"></path><path d="M612.5 55.985 L612.5 284.005" stroke-width="3.75"></path><path d="M617.5 23.215 L617.5 316.785" stroke-width="3.75"></path><path d="M622.5 153.865 L622.5 165.115" stroke-width="3.75"></path><path d="M622.5 170.74 L622.5 174.49" stroke-width="3.75"></path><path d="M622.5 180.115 L622.5 186.135" stroke-width="3.75"></path><path d="M627.5 27.435 L627.5 53.685" stroke-width="3.75"></path><path d="M627.5 59.31 L627.5 312.565" stroke-width="3.75"></path><path d="M632.5 114.775 L632.5 201.025" stroke-width="3.75"></path><path d="M632.5 206.65 L632.5 225.225" stroke-width="3.75"></path><path d="M637.5 61.845 L637.5 144.345" stroke-width="3.75"></path><path d="M637.5 149.97 L637.5 278.145" stroke-width="3.75"></path><path d="M642.5 151.365 L642.5 166.365" stroke-width="3.75"></path><path d="M642.5 171.99 L642.5 175.74" stroke-width="3.75"></path><path d="M642.5 181.365 L642.5 188.635" stroke-width="3.75"></path><path d="M647.5 123.965 L647.5 216.035" stroke-width="3.75"></path><path d="M652.5 147.425 L652.5 154.925" stroke-width="3.75"></path><path d="M652.5 160.55 L652.5 179.3" stroke-width="3.75"></path><path d="M652.5 184.925 L652.5 192.575" stroke-width="3.75"></path><path d="M657.5 9.344999999999999 L657.5 106.845" stroke-width="3.75"></path><path d="M657.5 112.47 L657.5 161.22" stroke-width="3.75"></path><path d="M657.5 166.845 L657.5 330.645" stroke-width="3.75"></path><path d="M662.5 89.955 L662.5 161.20499999999998" stroke-width="3.75"></path><path d="M662.5 166.82999999999998 L662.5 208.07999999999998" stroke-width="3.75"></path><path d="M662.5 213.70499999999998 L662.5 250.055" stroke-width="3.75"></path><path d="M667.5 62.965 L667.5 77.965" stroke-width="3.75"></path><path d="M667.5 83.59 L667.5 277.025" stroke-width="3.75"></path><path d="M672.5 92.485 L672.5 234.985" stroke-width="3.75"></path><path d="M672.5 240.61 L672.5 247.515" stroke-width="3.75"></path><path d="M677.5 29.135 L677.5 104.135" stroke-width="3.75"></path><path d="M677.5 109.76 L677.5 184.76" stroke-width="3.75"></path><path d="M677.5 190.385 L677.5 310.865" stroke-width="3.75"></path><path d="M682.5 144.155 L682.5 166.655" stroke-width="3.75"></path><path d="M682.5 172.28 L682.5 183.53" stroke-width="3.75"></path><path d="M682.5 189.155 L682.5 195.845" stroke-width="3.75"></path><path d="M687.5 36.655 L687.5 85.405" stroke-width="3.75"></path><path d="M687.5 91.03 L687.5 211.03" stroke-width="3.75"></path><path d="M687.5 216.655 L687.5 303.355" stroke-width="3.75"></path><path d="M692.5 11.275 L692.5 45.025" stroke-width="3.75"></path><path d="M692.5 50.65 L692.5 185.65" stroke-width="3.75"></path><path d="M692.5 191.275 L692.5 328.725" stroke-width="3.75"></path><path d="M697.5 2.715 L697.5 205.215" stroke-width="3.75"></path><path d="M697.5 210.84 L697.5 293.34000000000003" stroke-width="3.75"></path><path d="M697.5 298.96500000000003 L697.5 337.275" stroke-width="3.75"></path><path d="M702.5 50.175 L702.5 289.825" stroke-width="3.75"></path><path d="M707.5 54.605 L707.5 80.85499999999999" stroke-width="3.75"></path><path d="M707.5 86.47999999999999 L707.5 285.395" stroke-width="3.75"></path><path d="M712.5 96.315 L712.5 111.315" stroke-width="3.75"></path><path d="M712.5 116.94 L712.5 243.685" stroke-width="3.75"></path><path d="M717.5 78.545 L717.5 119.795" stroke-width="3.75"></path><path d="M717.5 125.42 L717.5 207.92000000000002" stroke-width="3.75"></path><path d="M717.5 213.54500000000002 L717.5 261.445" stroke-width="3.75"></path><path d="M722.5 23.585 L722.5 316.415" stroke-width="3.75"></path><path d="M727.5 144.385 L727.5 170.635" stroke-width="3.75"></path><path d="M727.5 176.26 L727.5 183.76" stroke-width="3.75"></path><path d="M727.5 189.385 L727.5 195.615" stroke-width="3.75"></path><path d="M732.5 153.875 L732.5 172.625" stroke-width="3.75"></path><path d="M732.5 178.25 L732.5 186.125" stroke-width="3.75"></path><path d="M737.5 55.935 L737.5 232.185" stroke-width="3.75"></path><path d="M737.5 237.81 L737.5 284.065" stroke-width="3.75"></path><path d="M742.5 24.795 L742.5 268.545" stroke-width="3.75"></path><path d="M742.5 274.17 L742.5 315.205" stroke-width="3.75"></path><path d="M747.5 12.095 L747.5 233.345" stroke-width="3.75"></path><path d="M747.5 238.97 L747.5 327.905" stroke-width="3.75"></path><path d="M752.5 101.975 L752.5 199.475" stroke-width="3.75"></path><path d="M752.5 205.1 L752.5 238.025" stroke-width="3.75"></path><path d="M757.5 152.715 L757.5 175.215" stroke-width="3.75"></path><path d="M757.5 180.84 L757.5 187.285" stroke-width="3.75"></path><path d="M762.5 141.285 L762.5 175.035" stroke-width="3.75"></path><path d="M762.5 180.66 L762.5 198.715" stroke-width="3.75"></path><path d="M767.5 140.215 L767.5 155.215" stroke-width="3.75"></path><path d="M767.5 160.84 L767.5 179.59" stroke-width="3.75"></path><path d="M767.5 185.215 L767.5 199.785" stroke-width="3.75"></path><path d="M772.5 10.315 L772.5 205.315" stroke-width="3.75"></path><path d="M772.5 210.94 L772.5 329.685" stroke-width="3.75"></path><path d="M777.5 148.895 L777.5 160.145" stroke-width="3.75"></path><path d="M777.5 165.77 L777.5 173.27" stroke-width="3.75"></path><path d="M777.5 178.895 L777.5 191.105" stroke-width="3.75"></path><path d="M782.5 51.465 L782.5 62.715" stroke-width="3.75"></path><path d="M782.5 68.34 L782.5 288.525" stroke-width="3.75"></path><path d="M787.5 12.685 L787.5 27.685000000000002" stroke-width="3.75"></path><path d="M787.5 33.31 L787.5 327.315" stroke-width="3.75"></path><path d="M792.5 6.865 L792.5 96.865" stroke-width="3.75"></path><path d="M792.5 102.49 L792.5 252.49" stroke-width="3.75"></path><path d="M792.5 258.115 L792.5 333.135" stroke-width="3.75"></path><path d="M797.5 30.955 L797.5 177.20499999999998" stroke-width="3.75"></path><path d="M797.5 182.82999999999998 L797.5 309.045" stroke-width="3.75"></path><path d="M802.5 95.255 L802.5 189.005" stroke-width="3.75"></path><path d="M802.5 194.63 L802.5 202.13" stroke-width="3.75"></path><path d="M802.5 207.755 L802.5 244.755" stroke-width="3.75"></path><path d="M807.5 16.134999999999998 L807.5 323.865" stroke-width="3.75"></path><path d="M812.5 149.465 L812.5 160.715" stroke-width="3.75"></path><path d="M812.5 166.34 L812.5 173.84" stroke-width="3.75"></path><path d="M812.5 179.465 L812.5 190.535" stroke-width="3.75"></path><path d="M817.5 56.585 L817.5 283.415" stroke-width="3.75"></path><path d="M822.5 132.005 L822.5 184.505" stroke-width="3.75"></path><path d="M822.5 190.13 L822.5 197.63" stroke-width="3.75"></path><path d="M822.5 203.255 L822.5 207.995" stroke-width="3.75"></path><path d="M827.5 87.185 L827.5 225.935" stroke-width="3.75"></path><path d="M827.5 231.56 L827.5 239.06" stroke-width="3.75"></path><path d="M827.5 244.685 L827.5 252.815" stroke-width="3.75"></path><path d="M832.5 104.775 L832.5 112.275" stroke-width="3.75"></path><path d="M832.5 117.9 L832.5 235.225" stroke-width="3.75"></path><path d="M837.5 116.505 L837.5 223.495" stroke-width="3.75"></path><path d="M842.5 94.395 L842.5 146.89499999999998" stroke-width="3.75"></path><path d="M842.5 152.51999999999998 L842.5 216.26999999999998" stroke-width="3.75"></path><path d="M842.5 221.89499999999998 L842.5 245.605" stroke-width="3.75"></path><path d="M847.5 98.345 L847.5 195.845" stroke-width="3.75"></path><path d="M847.5 201.47 L847.5 220.22" stroke-width="3.75"></path><path d="M847.5 225.845 L847.5 241.655" stroke-width="3.75"></path><path d="M852.5 72.065 L852.5 267.935" stroke-width="3.75"></path><path d="M857.5 18.035 L857.5 224.285" stroke-width="3.75"></path><path d="M857.5 229.91 L857.5 256.15999999999997" stroke-width="3.75"></path><path d="M857.5 261.78499999999997 L857.5 321.965" stroke-width="3.75"></path><path d="M862.5 151.745 L862.5 162.995" stroke-width="3.75"></path><path d="M862.5 168.62 L862.5 188.255" stroke-width="3.75"></path><path d="M867.5 131.385 L867.5 142.635" stroke-width="3.75"></path><path d="M867.5 148.26 L867.5 163.26" stroke-width="3.75"></path><path d="M867.5 168.885 L867.5 208.615" stroke-width="3.75"></path><path d="M872.5 125.555 L872.5 155.555" stroke-width="3.75"></path><path d="M872.5 161.18 L872.5 214.445" stroke-width="3.75"></path><path d="M877.5 86.655 L877.5 94.155" stroke-width="3.75"></path><path d="M877.5 99.78 L877.5 234.78" stroke-width="3.75"></path><path d="M877.5 240.405 L877.5 253.345" stroke-width="3.75"></path><path d="M882.5 54.775 L882.5 285.225" stroke-width="3.75"></path><path d="M887.5 37.405 L887.5 302.595" stroke-width="3.75"></path><path d="M892.5 51.185 L892.5 288.815" stroke-width="3.75"></path><path d="M897.5 50.575 L897.5 193.075" stroke-width="3.75"></path><path d="M897.5 198.7 L897.5 289.425" stroke-width="3.75"></path><path d="M902.5 23.385 L902.5 316.615" stroke-width="3.75"></path><path d="M907.5 90.395 L907.5 184.14499999999998" stroke-width="3.75"></path><path d="M907.5 189.76999999999998 L907.5 249.605" stroke-width="3.75"></path><path d="M912.5 85.625 L912.5 235.625" stroke-width="3.75"></path><path d="M912.5 241.25 L912.5 254.375" stroke-width="3.75"></path><path d="M917.5 116.805 L917.5 124.305" stroke-width="3.75"></path><path d="M917.5 129.93 L917.5 223.195" stroke-width="3.75"></path><path d="M922.5 137.005 L922.5 155.755" stroke-width="3.75"></path><path d="M922.5 161.38 L922.5 176.38" stroke-width="3.75"></path><path d="M922.5 182.005 L922.5 202.995" stroke-width="3.75"></path><path d="M927.5 95.005 L927.5 244.995" stroke-width="3.75"></path><path d="M932.5 62.955 L932.5 231.70499999999998" stroke-width="3.75"></path><path d="M932.5 237.32999999999998 L932.5 244.82999999999998" stroke-width="3.75"></path><path d="M932.5 250.45499999999998 L932.5 277.045" stroke-width="3.75"></path><path d="M937.5 8.855 L937.5 162.605" stroke-width="3.75"></path><path d="M937.5 168.23 L937.5 194.48" stroke-width="3.75"></path><path d="M937.5 200.105 L937.5 331.145" stroke-width="3.75"></path><path d="M942.5 95.095 L942.5 185.095" stroke-width="3.75"></path><path d="M942.5 190.72 L942.5 244.905" stroke-width="3.75"></path><path d="M947.5 72.825 L947.5 207.825" stroke-width="3.75"></path><path d="M947.5 213.45 L947.5 267.175" stroke-width="3.75"></path><path d="M952.5 49.435 L952.5 154.435" stroke-width="3.75"></path><path d="M952.5 160.06 L952.5 257.56" stroke-width="3.75"></path><path d="M952.5 263.185 L952.5 290.565" stroke-width="3.75"></path><path d="M957.5 32.915 L957.5 59.165" stroke-width="3.75"></path><path d="M957.5 64.78999999999999 L957.5 139.79" stroke-width="3.75"></path><path d="M957.5 145.415 L957.5 307.085" stroke-width="3.75"></path><path d="M962.5 143.645 L962.5 196.355" stroke-width="3.75"></path><path d="M967.5 25.935 L967.5 205.935" stroke-width="3.75"></path><path d="M967.5 211.56 L967.5 314.065" stroke-width="3.75"></path><path d="M972.5 120.755 L972.5 158.255" stroke-width="3.75"></path><path d="M972.5 163.88 L972.5 178.88" stroke-width="3.75"></path><path d="M972.5 184.505 L972.5 219.245" stroke-width="3.75"></path><path d="M977.5 134.785 L977.5 179.785" stroke-width="3.75"></path><path d="M977.5 185.41 L977.5 205.215" stroke-width="3.75"></path><path d="M982.5 136.405 L982.5 203.595" stroke-width="3.75"></path><path d="M987.5 38.685 L987.5 192.435" stroke-width="3.75"></path><path d="M987.5 198.06 L987.5 220.56" stroke-width="3.75"></path><path d="M987.5 226.185 L987.5 301.315" stroke-width="3.75"></path><path d="M992.5 124.065 L992.5 131.565" stroke-width="3.75"></path><path d="M992.5 137.19 L992.5 215.935" stroke-width="3.75"></path><path d="M997.5 50.105 L997.5 252.605" stroke-width="3.75"></path><path d="M997.5 258.23 L997.5 289.895" stroke-width="3.75"></path><path d="M1002.5 45.945 L1002.5 294.055" stroke-width="3.75"></path><path d="M1007.5 3.435 L1007.5 303.435" stroke-width="3.75"></path><path d="M1007.5 309.06 L1007.5 336.565" stroke-width="3.75"></path><path d="M1012.5 40.115 L1012.5 130.115" stroke-width="3.75"></path><path d="M1012.5 135.74 L1012.5 184.49" stroke-width="3.75"></path><path d="M1012.5 190.115 L1012.5 299.885" stroke-width="3.75"></path><path d="M1017.5 146.345 L1017.5 157.595" stroke-width="3.75"></path><path d="M1017.5 163.22 L1017.5 170.72" stroke-width="3.75"></path><path d="M1017.5 176.345 L1017.5 193.655" stroke-width="3.75"></path><path d="M1022.5 48.205 L1022.5 156.95499999999998" stroke-width="3.75"></path><path d="M1022.5 162.57999999999998 L1022.5 215.07999999999998" stroke-width="3.75"></path><path d="M1022.5 220.70499999999998 L1022.5 291.795" stroke-width="3.75"></path><path d="M1027.5 37.815 L1027.5 199.065" stroke-width="3.75"></path><path d="M1027.5 204.69 L1027.5 283.44" stroke-width="3.75"></path><path d="M1027.5 289.065 L1027.5 302.185" stroke-width="3.75"></path><path d="M1032.5 41.435 L1032.5 71.435" stroke-width="3.75"></path><path d="M1032.5 77.06 L1032.5 272.06" stroke-width="3.75"></path><path d="M1032.5 277.685 L1032.5 298.565" stroke-width="3.75"></path><path d="M1037.5 67.055 L1037.5 130.805" stroke-width="3.75"></path><path d="M1037.5 136.43 L1037.5 200.18" stroke-width="3.75"></path><path d="M1037.5 205.805 L1037.5 272.945" stroke-width="3.75"></path><path d="M1042.5 67.045 L1042.5 168.29500000000002" stroke-width="3.75"></path><path d="M1042.5 173.92000000000002 L1042.5 272.955" stroke-width="3.75"></path><path d="M1047.5 36.335 L1047.5 85.08500000000001" stroke-width="3.75"></path><path d="M1047.5 90.71000000000001 L1047.5 116.96000000000001" stroke-width="3.75"></path><path d="M1047.5 122.58500000000001 L1047.5 303.665" stroke-width="3.75"></path><path d="M1052.5 129.70499999999998 L1052.5 148.45499999999998" stroke-width="3.75"></path><path d="M1052.5 154.07999999999998 L1052.5 169.07999999999998" stroke-width="3.75"></path><path d="M1052.5 174.70499999999998 L1052.5 210.295" stroke-width="3.75"></path><path d="M1057.5 132.615 L1057.5 158.865" stroke-width="3.75"></path><path d="M1057.5 164.49 L1057.5 190.74" stroke-width="3.75"></path><path d="M1057.5 196.365 L1057.5 207.385" stroke-width="3.75"></path><path d="M1062.5 110.915 L1062.5 229.085" stroke-width="3.75"></path><path d="M1067.5 19.315 L1067.5 94.315" stroke-width="3.75"></path><path d="M1067.5 99.94 L1067.5 231.19" stroke-width="3.75"></path><path d="M1067.5 236.815 L1067.5 320.685" stroke-width="3.75"></path><path d="M1072.5 122.795 L1072.5 217.205" stroke-width="3.75"></path><path d="M1077.5 88.165 L1077.5 230.66500000000002" stroke-width="3.75"></path><path d="M1077.5 236.29000000000002 L1077.5 240.04000000000002" stroke-width="3.75"></path><path d="M1077.5 245.66500000000002 L1077.5 251.835" stroke-width="3.75"></path><path d="M1082.5 127.395 L1082.5 134.89499999999998" stroke-width="3.75"></path><path d="M1082.5 140.51999999999998 L1082.5 159.26999999999998" stroke-width="3.75"></path><path d="M1082.5 164.89499999999998 L1082.5 212.605" stroke-width="3.75"></path><path d="M1087.5 115.075 L1087.5 148.825" stroke-width="3.75"></path><path d="M1087.5 154.45 L1087.5 158.2" stroke-width="3.75"></path><path d="M1087.5 163.825 L1087.5 224.925" stroke-width="3.75"></path><path d="M1092.5 10.635 L1092.5 29.384999999999998" stroke-width="3.75"></path><path d="M1092.5 35.01 L1092.5 329.365" stroke-width="3.75"></path><path d="M1097.5 83.485 L1097.5 207.235" stroke-width="3.75"></path><path d="M1097.5 212.86 L1097.5 256.515" stroke-width="3.75"></path><path d="M1102.5 28.735 L1102.5 216.235" stroke-width="3.75"></path><path d="M1102.5 221.86 L1102.5 311.265" stroke-width="3.75"></path><path d="M1107.5 146.725 L1107.5 165.475" stroke-width="3.75"></path><path d="M1107.5 171.1 L1107.5 193.275" stroke-width="3.75"></path><path d="M1112.5 125.175 L1112.5 214.825" stroke-width="3.75"></path><path d="M1117.5 13.435 L1117.5 47.185" stroke-width="3.75"></path><path d="M1117.5 52.81 L1117.5 109.06" stroke-width="3.75"></path><path d="M1117.5 114.685 L1117.5 326.565" stroke-width="3.75"></path><path d="M1122.5 30.685 L1122.5 199.435" stroke-width="3.75"></path><path d="M1122.5 205.06 L1122.5 309.315" stroke-width="3.75"></path><path d="M1127.5 69.045 L1127.5 222.79500000000002" stroke-width="3.75"></path><path d="M1127.5 228.42000000000002 L1127.5 243.42000000000002" stroke-width="3.75"></path><path d="M1127.5 249.04500000000002 L1127.5 270.955" stroke-width="3.75"></path><path d="M1132.5 74.845 L1132.5 213.595" stroke-width="3.75"></path><path d="M1132.5 219.22 L1132.5 234.22" stroke-width="3.75"></path><path d="M1132.5 239.845 L1132.5 265.145" stroke-width="3.75"></path><path d="M1137.5 45.715 L1137.5 188.215" stroke-width="3.75"></path><path d="M1137.5 193.84 L1137.5 294.275" stroke-width="3.75"></path><path d="M1142.5 110.645 L1142.5 229.365" stroke-width="3.75"></path><path d="M1147.5 45.785 L1147.5 294.225" stroke-width="3.75"></path><path d="M1152.5 6.775 L1152.5 333.235" stroke-width="3.75"></path><path d="M1157.5 33.635000000000005 L1157.5 187.385" stroke-width="3.75"></path><path d="M1157.5 193.01 L1157.5 306.365" stroke-width="3.75"></path><path d="M1162.5 95.405 L1162.5 244.595" stroke-width="3.75"></path><path d="M1167.5 53.405 L1167.5 188.405" stroke-width="3.75"></path><path d="M1167.5 194.03 L1167.5 231.53" stroke-width="3.75"></path><path d="M1167.5 237.155 L1167.5 286.605" stroke-width="3.75"></path><path d="M1172.5 109.145 L1172.5 165.39499999999998" stroke-width="3.75"></path><path d="M1172.5 171.01999999999998 L1172.5 189.76999999999998" stroke-width="3.75"></path><path d="M1172.5 195.39499999999998 L1172.5 230.855" stroke-width="3.75"></path><path d="M1177.5 66.755 L1177.5 209.255" stroke-width="3.75"></path><path d="M1177.5 214.88 L1177.5 222.38" stroke-width="3.75"></path><path d="M1177.5 228.005 L1177.5 273.255" stroke-width="3.75"></path><path d="M1182.5 65.845 L1182.5 238.345" stroke-width="3.75"></path><path d="M1182.5 243.97 L1182.5 262.72" stroke-width="3.75"></path><path d="M1182.5 268.345 L1182.5 274.145" stroke-width="3.75"></path><path d="M1187.5 149.065 L1187.5 171.565" stroke-width="3.75"></path><path d="M1187.5 177.19 L1187.5 180.94" stroke-width="3.75"></path><path d="M1187.5 186.565 L1187.5 190.935" stroke-width="3.75"></path><path d="M1192.5 125.435 L1192.5 177.935" stroke-width="3.75"></path><path d="M1192.5 183.56 L1192.5 214.565" stroke-width="3.75"></path><path d="M1197.5 67.175 L1197.5 149.675" stroke-width="3.75"></path><path d="M1197.5 155.3 L1197.5 249.05" stroke-width="3.75"></path><path d="M1197.5 254.675 L1197.5 272.825" stroke-width="3.75"></path><path d="M1202.5 147.025 L1202.5 154.525" stroke-width="3.75"></path><path d="M1202.5 160.15 L1202.5 175.15" stroke-width="3.75"></path><path d="M1202.5 180.775 L1202.5 192.975" stroke-width="3.75"></path><path d="M1207.5 54.955 L1207.5 223.70499999999998" stroke-width="3.75"></path><path d="M1207.5 229.32999999999998 L1207.5 255.57999999999998" stroke-width="3.75"></path><path d="M1207.5 261.205 L1207.5 285.055" stroke-width="3.75"></path><path d="M1212.5 75.675 L1212.5 233.175" stroke-width="3.75"></path><path d="M1212.5 238.8 L1212.5 246.3" stroke-width="3.75"></path><path d="M1212.5 251.925 L1212.5 264.325" stroke-width="3.75"></path><path d="M1217.5 94.915 L1217.5 151.16500000000002" stroke-width="3.75"></path><path d="M1217.5 156.79000000000002 L1217.5 220.54000000000002" stroke-width="3.75"></path><path d="M1217.5 226.16500000000002 L1217.5 245.085" stroke-width="3.75"></path><path d="M1222.5 107.825 L1222.5 175.325" stroke-width="3.75"></path><path d="M1222.5 180.95 L1222.5 214.7" stroke-width="3.75"></path><path d="M1222.5 220.325 L1222.5 232.175" stroke-width="3.75"></path><path d="M1227.5 59.095 L1227.5 261.595" stroke-width="3.75"></path><path d="M1227.5 267.22 L1227.5 270.97" stroke-width="3.75"></path><path d="M1227.5 276.595 L1227.5 280.905" stroke-width="3.75"></path><path d="M1232.5 48.135 L1232.5 119.38499999999999" stroke-width="3.75"></path><path d="M1232.5 125.00999999999999 L1232.5 256.26" stroke-width="3.75"></path><path d="M1232.5 261.885 L1232.5 291.865" stroke-width="3.75"></path><path d="M1237.5 83.205 L1237.5 256.795" stroke-width="3.75"></path><path d="M1242.5 63.405 L1242.5 164.655" stroke-width="3.75"></path><path d="M1242.5 170.28 L1242.5 276.595" stroke-width="3.75"></path><path d="M1247.5 124.215 L1247.5 184.215" stroke-width="3.75"></path><path d="M1247.5 189.84 L1247.5 201.09" stroke-width="3.75"></path><path d="M1247.5 206.715 L1247.5 215.785" stroke-width="3.75"></path><path d="M1252.5 35.525 L1252.5 136.775" stroke-width="3.75"></path><path d="M1252.5 142.4 L1252.5 277.4" stroke-width="3.75"></path><path d="M1252.5 283.025 L1252.5 304.475" stroke-width="3.75"></path><path d="M1257.5 106.445 L1257.5 177.695" stroke-width="3.75"></path><path d="M1257.5 183.32 L1257.5 213.32" stroke-width="3.75"></path><path d="M1257.5 218.945 L1257.5 233.555" stroke-width="3.75"></path><path d="M1262.5 15.325 L1262.5 124.075" stroke-width="3.75"></path><path d="M1262.5 129.7 L1262.5 212.2" stroke-width="3.75"></path><path d="M1262.5 217.825 L1262.5 324.675" stroke-width="3.75"></path><path d="M1267.5 149.695 L1267.5 160.945" stroke-width="3.75"></path><path d="M1267.5 166.57 L1267.5 174.07" stroke-width="3.75"></path><path d="M1267.5 179.695 L1267.5 190.305" stroke-width="3.75"></path><path d="M1272.5 13.945 L1272.5 231.445" stroke-width="3.75"></path><path d="M1272.5 237.07 L1272.5 304.57" stroke-width="3.75"></path><path d="M1272.5 310.195 L1272.5 326.055" stroke-width="3.75"></path><path d="M1277.5 118.585 L1277.5 126.085" stroke-width="3.75"></path><path d="M1277.5 131.70999999999998 L1277.5 191.70999999999998" stroke-width="3.75"></path><path d="M1277.5 197.33499999999998 L1277.5 221.415" stroke-width="3.75"></path><path d="M1282.5 70.705 L1282.5 81.955" stroke-width="3.75"></path><path d="M1282.5 87.58 L1282.5 166.32999999999998" stroke-width="3.75"></path><path d="M1282.5 171.95499999999998 L1282.5 269.295" stroke-width="3.75"></path><path d="M1287.5 64.945 L1287.5 275.055" stroke-width="3.75"></path><path d="M1292.5 27.905 L1292.5 312.095" stroke-width="3.75"></path><path d="M1297.5 44.235 L1297.5 85.485" stroke-width="3.75"></path><path d="M1297.5 91.11 L1297.5 196.11" stroke-width="3.75"></path><path d="M1297.5 201.735 L1297.5 295.755" stroke-width="3.75"></path><path d="M1302.5 28.035 L1302.5 311.975" stroke-width="3.75"></path><path d="M1307.5 87.425 L1307.5 91.175" stroke-width="3.75"></path><path d="M1307.5 96.8 L1307.5 183.05" stroke-width="3.75"></path><path d="M1307.5 188.675 L1307.5 252.575" stroke-width="3.75"></path><path d="M1312.5 138.405 L1312.5 145.905" stroke-width="3.75"></path><path d="M1312.5 151.53 L1312.5 162.78" stroke-width="3.75"></path><path d="M1312.5 168.405 L1312.5 201.595" stroke-width="3.75"></path><path d="M1317.5 132.485 L1317.5 166.235" stroke-width="3.75"></path><path d="M1317.5 171.86 L1317.5 207.515" stroke-width="3.75"></path><path d="M1322.5 134.885 L1322.5 205.115" stroke-width="3.75"></path><path d="M1327.5 44.065 L1327.5 100.315" stroke-width="3.75"></path><path d="M1327.5 105.94 L1327.5 295.935" stroke-width="3.75"></path><path d="M1332.5 116.565 L1332.5 184.065" stroke-width="3.75"></path><path d="M1332.5 189.69 L1332.5 200.94" stroke-width="3.75"></path><path d="M1332.5 206.565 L1332.5 223.435" stroke-width="3.75"></path><path d="M1337.5 132.465 L1337.5 184.965" stroke-width="3.75"></path><path d="M1337.5 190.59 L1337.5 207.535" stroke-width="3.75"></path><path d="M1342.5 85.015 L1342.5 254.985" stroke-width="3.75"></path><path d="M1347.5 37.095 L1347.5 258.345" stroke-width="3.75"></path><path d="M1347.5 263.97 L1347.5 282.72" stroke-width="3.75"></path><path d="M1347.5 288.345 L1347.5 302.905" stroke-width="3.75"></path><path d="M1352.5 88.115 L1352.5 106.865" stroke-width="3.75"></path><path d="M1352.5 112.49 L1352.5 194.99" stroke-width="3.75"></path><path d="M1352.5 200.615 L1352.5 251.885" stroke-width="3.75"></path><path d="M1357.5 135.315 L1357.5 180.315" stroke-width="3.75"></path><path d="M1357.5 185.94 L1357.5 193.44" stroke-width="3.75"></path><path d="M1357.5 199.065 L1357.5 204.685" stroke-width="3.75"></path><path d="M1362.5 117.695 L1362.5 192.695" stroke-width="3.75"></path><path d="M1362.5 198.32 L1362.5 209.57" stroke-width="3.75"></path><path d="M1362.5 215.195 L1362.5 222.305" stroke-width="3.75"></path><path d="M1367.5 84.155 L1367.5 255.84500000000003" stroke-width="3.75"></path><path d="M1372.5 136.935 L1372.5 166.935" stroke-width="3.75"></path><path d="M1372.5 172.56 L1372.5 203.065" stroke-width="3.75"></path><path d="M1377.5 109.085 L1377.5 184.08499999999998" stroke-width="3.75"></path><path d="M1377.5 189.70999999999998 L1377.5 230.915" stroke-width="3.75"></path><path d="M1382.5 10.025 L1382.5 329.975" stroke-width="3.75"></path><path d="M1387.5 6.495 L1387.5 201.495" stroke-width="3.75"></path><path d="M1387.5 207.12 L1387.5 297.12" stroke-width="3.75"></path><path d="M1387.5 302.745 L1387.5 333.505" stroke-width="3.75"></path><path d="M1392.5 44.685 L1392.5 134.685" stroke-width="3.75"></path><path d="M1392.5 140.31 L1392.5 282.81" stroke-width="3.75"></path><path d="M1392.5 288.435 L1392.5 295.315" stroke-width="3.75"></path><path d="M1397.5 113.265 L1397.5 135.765" stroke-width="3.75"></path><path d="M1397.5 141.39 L1397.5 152.64" stroke-width="3.75"></path><path d="M1397.5 158.265 L1397.5 226.735" stroke-width="3.75"></path><path d="M1402.5 58.825 L1402.5 281.175" stroke-width="3.75"></path><path d="M1407.5 97.205 L1407.5 138.45499999999998" stroke-width="3.75"></path><path d="M1407.5 144.07999999999998 L1407.5 242.805" stroke-width="3.75"></path><path d="M1412.5 138.605 L1412.5 149.855" stroke-width="3.75"></path><path d="M1412.5 155.48 L1412.5 174.23" stroke-width="3.75"></path><path d="M1412.5 179.855 L1412.5 201.395" stroke-width="3.75"></path><path d="M1417.5 48.115 L1417.5 179.365" stroke-width="3.75"></path><path d="M1417.5 184.99 L1417.5 199.99" stroke-width="3.75"></path><path d="M1417.5 205.615 L1417.5 291.885" stroke-width="3.75"></path><path d="M1422.5 60.745 L1422.5 131.995" stroke-width="3.75"></path><path d="M1422.5 137.62 L1422.5 231.37" stroke-width="3.75"></path><path d="M1422.5 236.995 L1422.5 279.255" stroke-width="3.75"></path><path d="M1427.5 61.725 L1427.5 144.225" stroke-width="3.75"></path><path d="M1427.5 149.85 L1427.5 278.275" stroke-width="3.75"></path><path d="M1432.5 69.795 L1432.5 208.54500000000002" stroke-width="3.75"></path><path d="M1432.5 214.17000000000002 L1432.5 244.17000000000002" stroke-width="3.75"></path><path d="M1432.5 249.79500000000002 L1432.5 270.205" stroke-width="3.75"></path><path d="M1437.5 36.095 L1437.5 212.345" stroke-width="3.75"></path><path d="M1437.5 217.97 L1437.5 303.895" stroke-width="3.75"></path></g></g><defs><mask id="SvgjsMask11108"><rect width="1440" height="340" fill="#ffffff"></rect></mask><linearGradient x1="1164.96" y1="-274.99199999999996" x2="275.04" y2="614.992" gradientUnits="userSpaceOnUse" id="SvgjsLinearGradient11109"><stop stop-color="#3a7cc3" offset="0"></stop><stop stop-color="rgba(123, 97, 255, 1)" offset="1"></stop></linearGradient></defs></svg>