<svg xmlns="http://www.w3.org/2000/svg" version="1.1" xmlns:xlink="http://www.w3.org/1999/xlink" xmlns:svgjs="http://svgjs.com/svgjs" width="1440" height="340" preserveAspectRatio="none" viewBox="0 0 1440 340"><g mask="url(&quot;#SvgjsMask1018&quot;)" fill="none"><path d="M1700.43 71.74C1549 71.85 1401.11 139.91 1098.55 139.74 795.99 139.57 654.68-51.01 496.67-53.36" stroke="rgba(123, 97, 255, 1)" stroke-width="2"></path><path d="M1642.85 11.7C1532.55 12.92 1431.65 134.16 1218.95 134.1 1006.26 134.04 911.46-54.87 795.06-59.37" stroke="rgba(123, 97, 255, 1)" stroke-width="2"></path><path d="M1536.75 222.3C1357.68 222.51 1186.11 318.17 826.81 317.5 467.51 316.83 311.17 7.08 116.87-0.05" stroke="rgba(123, 97, 255, 1)" stroke-width="2"></path><path d="M1624.69 90.78C1467.45 91.15 1316.03 196.31 1004.61 196.18 693.18 196.05 549.2-23.12 384.52-26.46" stroke="rgba(123, 97, 255, 1)" stroke-width="2"></path><path d="M1445.53 20.87C1279.44 21.35 1119.22 139.9 791.92 139.87 464.62 139.84 308.53-49.05 138.31-50.99" stroke="rgba(123, 97, 255, 1)" stroke-width="2"></path></g><defs><mask id="SvgjsMask1018"><rect width="1440" height="340" fill="#ffffff"></rect></mask></defs></svg>